HIERARCHY
ROOT Hips
{
	OFFSET	0.00	0.00	0.00
	CHANNELS 6 Xposition Yposition Zposition Zrotation Xrotation Yrotation
	JOINT LeftUpLeg
	{
		OFFSET	 3.430000	 0.000000	 0.000000
		CHANNELS 3 Zrotation Xrotation Yrotation
		JOINT LeftLowLeg
		{
			OFFSET	 0.000000	-18.469999	 0.000000
			CHANNELS 3 Zrotation Xrotation Yrotation
			JOINT LeftFoot
			{
				OFFSET	 0.000000	-17.950001	 0.000000
				CHANNELS 3 Zrotation Xrotation Yrotation
				End Site 
				{
					OFFSET	 0.000000	-3.119996	 0.000000
				}
			}
		}
	}
	JOINT RightUpLeg
	{
		OFFSET	-3.430000	 0.000000	 0.000000
		CHANNELS 3 Zrotation Xrotation Yrotation
		JOINT RightLowLeg
		{
			OFFSET	 0.000000	-18.809999	 0.000000
			CHANNELS 3 Zrotation Xrotation Yrotation
			JOINT RightFoot
			{
				OFFSET	 0.000000	-17.570000	 0.000000
				CHANNELS 3 Zrotation Xrotation Yrotation
				End Site 
				{
					OFFSET	 0.000000	-3.250000	 0.000000
				}
			}
		}
	}
	JOINT Chest
	{
		OFFSET	 0.000000	 4.570000	 0.000000
		CHANNELS 3 Zrotation Xrotation Yrotation
		JOINT LeftCollar
		{
			OFFSET	 1.060000	 15.330000	 1.760000
			CHANNELS 3 Zrotation Xrotation Yrotation
			JOINT LeftUpArm
			{
				OFFSET	 5.810000	 0.000000	 0.000000
				CHANNELS 3 Zrotation Xrotation Yrotation
				JOINT LeftLowArm
				{
					OFFSET	 0.000000	-12.080000	 0.000000
					CHANNELS 3 Zrotation Xrotation Yrotation
					JOINT LeftHand
					{
						OFFSET	 0.000000	-9.820000	 0.000000
						CHANNELS 3 Zrotation Xrotation Yrotation
						End Site 
						{
							OFFSET	 0.000000	-7.369996	 0.000000
						}
					}
				}
			}
		}
		JOINT RightCollar
		{
			OFFSET	-1.060000	 15.330000	 1.760000
			CHANNELS 3 Zrotation Xrotation Yrotation
			JOINT RightUpArm
			{
				OFFSET	-6.060000	 0.000000	 0.000000
				CHANNELS 3 Zrotation Xrotation Yrotation
				JOINT RightLowArm
				{
					OFFSET	 0.000000	-11.900000	 0.000000
					CHANNELS 3 Zrotation Xrotation Yrotation
					JOINT RightHand
					{
						OFFSET	 0.000000	-9.520000	 0.000000
						CHANNELS 3 Zrotation Xrotation Yrotation
						End Site 
						{
							OFFSET	 0.000000	-7.140012	 0.000000
						}
					}
				}
			}
		}
		JOINT Neck
		{
			OFFSET	 0.000000	 17.620001	 0.000000
			CHANNELS 3 Zrotation Xrotation Yrotation
			JOINT Head
			{
				OFFSET	 0.000000	 5.190000	 0.000000
				CHANNELS 3 Zrotation Xrotation Yrotation
				End Site 
				{
					OFFSET	 0.000000	 4.140007	 0.000000
				}
			}
		}
	}
}
MOTION
Frames:     19
Frame Time: 0.033333
-12.53	 42.96	 31.29	 10.83	-1.04	 44.65	-4.74	-3.54	-0.29	 5.81	 16.28	-21.49	-3.86	-6.44	 1.48	-0.50	-4.71	-0.04	-6.01	 16.80	-26.28	-7.31	-12.28	 1.32	 1.50	 8.70	 21.11	-5.25	 0.00	 13.15	 66.85	 16.54	 41.32	 0.00	-16.13	 25.81	 0.00	 0.00	 0.00	-22.30	 0.00	-1.68	-70.91	-32.26	-32.71	 0.00	-32.15	-24.67	 0.00	 0.00	 0.00	-5.04	 26.10	 0.00	 4.56	-22.32	-21.89	
-11.95	 42.31	 30.61	 10.07	-2.05	 17.76	-6.29	-3.89	-0.43	 5.07	 14.74	-21.73	-3.88	-7.94	 1.38	-3.09	-6.63	-0.36	-1.68	 17.71	-40.72	-7.33	-13.12	 1.21	 2.41	 9.49	 24.51	-8.39	 0.00	 12.88	 69.16	 15.35	 59.95	 0.00	-16.99	 25.54	 0.00	 0.00	 0.00	-20.79	 0.00	-0.50	-71.65	-27.32	-36.07	 0.00	-31.92	-24.87	 0.00	 0.00	 0.00	-6.03	 27.07	 0.00	 4.45	-24.34	-16.78	
-11.55	 41.13	 30.32	 10.06	-2.49	-2.49	-7.64	-5.81	-0.78	 4.30	 16.01	-16.82	-3.88	-8.80	 1.32	-5.76	-10.00	-1.00	 2.40	 23.11	-45.73	-7.36	-14.00	 1.10	 1.49	 10.61	 23.98	-9.16	 0.00	 11.64	 72.81	 7.46	 70.96	 0.00	-17.88	 25.36	 0.00	 0.00	 0.00	-18.64	 0.00	-0.88	-70.74	-21.55	-41.25	 0.00	-31.98	-24.60	 0.00	 0.00	 0.00	-7.40	 27.32	 0.00	 5.22	-25.73	-8.16	
-11.44	 39.60	 30.24	 9.45	-4.11	-17.01	-8.11	-8.41	-1.19	 3.90	 22.59	-7.75	-3.91	-10.80	 1.18	-6.68	-13.23	-1.53	 4.12	 31.66	-42.42	-7.44	-16.35	 0.78	-0.07	 12.55	 18.17	-6.67	 0.00	 11.17	 77.76	-4.93	 75.64	 0.00	-18.40	 25.47	 0.00	 0.00	 0.00	-15.92	 0.00	-1.52	-68.66	-16.58	-45.66	 0.00	-33.13	-24.19	 0.00	 0.00	 0.00	-9.00	 27.27	 0.00	 6.41	-26.76	 2.67	
-11.59	 38.16	 30.27	 6.95	-6.52	-27.95	-7.46	-11.99	-1.56	 3.82	 34.75	 1.38	-3.91	-11.36	 1.14	-4.77	-15.07	-1.24	 2.61	 40.09	-35.10	-7.59	-19.80	 0.30	-1.43	 15.39	 7.84	-0.93	 0.00	 11.05	 81.66	-16.72	 69.74	 0.00	-18.48	 25.76	 0.00	 0.00	 0.00	-12.50	 0.00	-2.14	-65.99	-13.42	-46.77	 0.00	-35.21	-24.01	 0.00	 0.00	 0.00	-10.74	 26.89	 0.00	 7.43	-27.67	 14.12	
-11.85	 37.41	 30.49	 3.38	-8.60	-38.78	-6.30	-15.98	-1.74	 3.97	 48.04	 6.52	-3.87	-7.16	 1.43	-1.11	-14.93	-0.28	-3.04	 45.03	-24.54	-7.69	-21.86	 0.00	-3.22	 18.05	-3.20	 5.81	 0.00	 9.01	 82.95	-24.42	 55.08	 0.00	-18.51	 25.53	 0.00	 0.00	 0.00	-8.36	 0.00	-3.17	-64.04	-11.50	-43.44	 0.00	-37.31	-24.45	 0.00	 0.00	 0.00	-11.96	 25.87	 0.00	 7.61	-28.22	 24.35	
-12.08	 37.57	 31.06	 0.12	-9.45	-52.98	-5.70	-18.35	-1.80	 3.65	 55.68	 7.15	-3.84	-0.41	 1.89	 1.92	-12.82	 0.43	-11.69	 43.49	-9.37	-7.63	-20.70	 0.17	-5.55	 18.88	-10.85	 9.77	 0.00	 4.09	 81.20	-27.56	 36.27	 0.00	-18.87	 24.55	 0.00	 0.00	 0.00	-5.24	 0.00	-4.40	-63.24	-9.61	-37.20	 0.00	-39.40	-25.25	 0.00	 0.00	 0.00	-11.85	 24.22	 0.00	 6.38	-27.68	 31.55	
-12.34	 38.56	 32.05	-2.12	-8.01	-72.40	-5.54	-18.62	-1.77	 2.81	 54.98	 4.99	-3.85	 4.20	 2.20	 3.10	-10.05	 0.54	-17.17	 35.00	 7.40	-7.42	-15.77	 0.86	-6.84	 17.25	-13.85	 9.97	 0.00	-2.03	 76.74	-26.61	 18.26	 0.00	-19.51	 22.95	 0.00	 0.00	 0.00	-4.62	 0.00	-4.84	-62.92	-8.19	-32.55	 0.00	-41.07	-25.65	 0.00	 0.00	 0.00	-10.34	 22.42	 0.00	 4.06	-25.21	 34.11	
-12.86	 40.08	 33.29	-2.70	-4.27	-97.00	-5.24	-17.57	-1.59	 4.27	 48.32	-0.16	-3.85	 5.27	 2.27	 3.06	-8.21	 0.44	-15.40	 24.20	 20.17	-7.20	-7.48	 1.94	-6.31	 14.72	-12.72	 8.94	 0.00	-6.76	 71.63	-23.18	 7.50	 0.00	-19.43	 22.09	 0.00	 0.00	 0.00	-5.77	 0.00	-4.75	-62.17	-9.07	-31.70	 0.00	-41.29	-25.35	 0.00	 0.00	 0.00	-8.59	 20.75	 0.00	 2.31	-20.81	 31.06	
-13.88	 41.62	 34.40	-1.21	-0.12	-126.21	-4.64	-15.96	-1.28	 7.41	 40.53	-6.48	-3.85	 4.13	 2.19	 3.25	-7.88	 0.45	-9.84	 17.75	 23.40	-7.14	 1.26	 3.04	-5.57	 12.24	-8.97	 8.37	 0.00	-7.51	 67.42	-18.66	 2.87	 0.00	-18.36	 22.57	 0.00	 0.00	 0.00	-7.55	 0.00	-4.96	-60.97	-13.81	-31.62	 0.00	-40.29	-24.61	 0.00	 0.00	 0.00	-7.46	 19.37	 0.00	 2.32	-16.20	 22.54	
-15.47	 42.64	 35.02	 0.97	 2.61	-160.12	-4.36	-13.68	-1.03	 8.73	 34.29	-11.74	-3.84	 2.68	 2.10	 3.92	-7.57	 0.52	-6.73	 16.74	 11.63	-7.17	 5.40	 3.56	-5.69	 9.45	-3.41	 7.30	 0.00	-4.74	 64.96	-11.51	 1.37	 0.00	-17.11	 23.65	 0.00	 0.00	 0.00	-10.20	 0.00	-5.00	-59.99	-20.97	-28.42	 0.00	-39.51	-24.08	 0.00	 0.00	 0.00	-6.79	 18.59	 0.00	 3.52	-13.39	 10.39	
-17.35	 43.00	 34.86	 2.96	 4.52	 161.81	-4.73	-10.78	-0.89	 7.25	 28.57	-17.35	-3.84	 1.74	 2.03	 3.60	-6.29	 0.40	-6.53	 17.45	-3.26	-7.14	 2.23	 3.16	-5.38	 7.02	 3.55	 4.63	 0.00	 0.03	 64.50	-1.21	 4.12	 0.00	-16.12	 24.85	 0.00	 0.00	 0.00	-15.57	 0.00	-4.06	-59.26	-28.99	-23.64	 0.00	-38.75	-23.75	 0.00	 0.00	 0.00	-6.06	 18.88	 0.00	 4.74	-13.44	-2.18	
-18.95	 42.95	 33.89	 5.97	 5.15	 121.78	-5.10	-7.81	-0.69	 6.01	 22.30	-23.79	-3.84	 0.51	 1.95	 2.36	-5.06	 0.21	-6.58	 17.74	-11.13	-7.15	-3.00	 2.51	-3.69	 6.32	 11.17	 0.97	 0.00	 6.04	 65.00	 9.40	 13.17	 0.00	-15.60	 25.74	 0.00	 0.00	 0.00	-22.39	 0.00	-3.49	-59.89	-37.93	-22.17	 0.00	-36.34	-23.38	 0.00	 0.00	 0.00	-5.03	 20.43	 0.00	 5.22	-16.00	-12.24	
-19.76	 42.68	 32.53	 8.51	 2.95	 82.95	-5.10	-5.47	-0.49	 6.84	 17.63	-27.64	-3.84	-1.42	 1.82	 1.43	-4.47	 0.11	-5.97	 17.09	-21.00	-7.20	-7.76	 1.91	-1.28	 6.91	 19.23	-2.58	 0.00	 10.72	 65.47	 18.06	 29.55	 0.00	-15.72	 25.92	 0.00	 0.00	 0.00	-26.58	 0.00	-3.89	-63.19	-44.27	-25.56	 0.00	-32.52	-23.14	 0.00	 0.00	 0.00	-4.12	 22.84	 0.00	 4.98	-19.54	-17.67	
-19.79	 42.12	 31.36	 8.38	 0.18	 49.23	-5.22	-4.64	-0.42	 8.02	 16.70	-28.19	-3.85	-4.03	 1.65	 0.03	-4.66	 0.00	-3.00	 15.97	-35.10	-7.27	-11.08	 1.48	 0.90	 7.64	 25.17	-5.96	 0.00	 12.19	 66.38	 23.61	 48.91	 0.00	-16.40	 25.67	 0.00	 0.00	 0.00	-26.67	 0.00	-3.57	-67.14	-44.05	-30.18	 0.00	-30.48	-23.32	 0.00	 0.00	 0.00	-4.02	 25.37	 0.00	 4.85	-22.77	-17.77	
-19.49	 41.13	 30.65	 7.19	-0.91	 22.36	-5.61	-5.34	-0.52	 7.85	 19.14	-22.66	-3.87	-7.68	 1.40	-2.45	-6.66	-0.28	 2.13	 17.77	-44.39	-7.33	-13.26	 1.19	 2.06	 8.35	 27.19	-8.80	 0.00	 11.24	 67.94	 23.63	 61.33	 0.00	-17.36	 25.52	 0.00	 0.00	 0.00	-24.48	 0.00	-2.39	-68.32	-38.08	-33.46	 0.00	-31.17	-23.67	 0.00	 0.00	 0.00	-4.90	 27.37	 0.00	 5.45	-25.26	-13.09	
-19.27	 39.74	 30.33	 6.60	-1.45	 1.85	-6.07	-6.94	-0.74	 6.12	 24.53	-10.27	-3.92	-12.07	 1.09	-4.72	-10.95	-0.90	 6.46	 25.06	-44.26	-7.42	-15.87	 0.84	 1.56	 9.65	 25.18	-10.04	 0.00	 10.56	 71.06	 15.25	 65.41	 0.00	-18.33	 25.48	 0.00	 0.00	 0.00	-21.35	 0.00	-1.68	-66.87	-30.21	-35.82	 0.00	-33.29	-23.86	 0.00	 0.00	 0.00	-6.46	 28.78	 0.00	 6.74	-27.08	-4.62	
-19.30	 38.26	 30.22	 5.67	-3.08	-13.21	-5.87	-9.37	-0.96	 3.29	 33.61	 4.15	-3.97	-14.96	 0.89	-4.43	-15.71	-1.20	 7.20	 35.79	-38.11	-7.56	-19.25	 0.38	 0.15	 12.06	 18.50	-8.44	 0.00	 11.31	 75.65	 0.54	 65.79	 0.00	-18.90	 25.57	 0.00	 0.00	 0.00	-17.64	 0.00	-1.53	-64.27	-23.50	-37.42	 0.00	-35.66	-23.87	 0.00	 0.00	 0.00	-8.44	 29.75	 0.00	 8.23	-28.51	 6.09	
-19.53	 37.14	 30.27	 3.57	-5.35	-24.40	-4.51	-12.90	-1.01	-0.27	 45.72	 15.15	-3.95	-13.40	 1.00	-0.98	-18.07	-0.30	 3.19	 44.23	-29.58	-7.70	-21.92	 0.00	-1.58	 14.82	 7.65	-3.16	 0.00	 11.21	 79.32	-12.84	 58.47	 0.00	-19.02	 25.73	 0.00	 0.00	 0.00	-13.09	 0.00	-1.61	-61.86	-19.28	-37.80	 0.00	-37.33	-23.86	 0.00	 0.00	 0.00	-10.45	 30.01	 0.00	 9.37	-29.73	 17.13	
